<!-- <svg width="182" height="48" viewBox="0 0 182 48" fill="none" xmlns="http://www.w3.org/2000/svg">
<path d="M2.84628 32.6993L1.65578 15.5901C1.63877 15.403 1.58775 14.8758 1.57074 14.6887C1.53673 14.2296 1.63877 14.0085 1.85986 13.7363C1.96191 13.6003 2.35307 13.3282 2.93131 13.4472C3.08438 13.4812 3.40751 13.5153 3.54357 13.5323C4.63203 13.6683 5.34633 13.7534 6.02661 13.8044C7.6593 13.9234 8.47564 13.9915 9.30899 13.9234C10.2614 13.8384 10.4315 13.8044 11.792 13.6003C13.5268 13.3282 13.9009 13.6173 14.173 13.8214C14.4451 14.0255 14.6832 14.4847 14.6662 14.9439C14.6662 15.1649 14.5472 15.6752 14.5132 15.8963C14.2751 17.0357 14.139 21.7977 14.139 22.546C14.139 23.2093 14.19 23.7365 14.2751 24.1617C14.2921 24.2638 14.3771 24.3148 14.4792 24.3148L21.5711 23.6005C22.4555 23.5325 23.3569 23.3964 23.7991 23.9406C24.2413 24.4679 24.0712 25.0631 23.663 25.7094C23.527 25.9305 23.4419 26.1856 23.4419 26.4577L23.1528 33.0395C23.1528 33.2095 23.0167 33.3456 22.8637 33.3626L10.3464 34.7232C10.3124 34.7232 10.2614 34.7232 10.2274 34.7232L3.11839 33.0054C2.96533 32.9544 2.86329 32.8354 2.84628 32.6993Z" stroke="#11100E" stroke-miterlimit="10" stroke-linecap="round" stroke-linejoin="round"/>
<path d="M4.49597 16.0318C4.49597 16.0318 5.48239 20.9468 5.77151 23.8891C5.78851 23.9911 5.89056 24.0591 5.9926 24.0591C6.945 23.9231 11.4519 23.634 11.9621 24.8245C12.4213 25.8789 12.4553 29.0252 12.4723 29.8416C12.4723 29.9606 12.5744 30.0456 12.6764 30.0286L20.3126 29.1443" stroke="#11100E" stroke-miterlimit="10" stroke-linecap="round" stroke-linejoin="round"/>
<path d="M10.2106 34.7066L9.53033 26.22" stroke="#11100E" stroke-miterlimit="10" stroke-linecap="round" stroke-linejoin="round"/>
<path d="M19.5476 23.4137V20.5565" stroke="#11100E" stroke-width="0.7" stroke-miterlimit="10" stroke-linecap="round" stroke-linejoin="round"/>
<path d="M20.6701 20.6075V21.9681" stroke="#11100E" stroke-width="0.7" stroke-miterlimit="10" stroke-linecap="round" stroke-linejoin="round"/>
<path d="M18.4252 20.5565C18.4252 21.0157 18.051 21.3899 17.5918 21.3899C17.1326 21.3899 16.7585 21.0157 16.7585 20.5565" stroke="#11100E" stroke-width="0.7" stroke-miterlimit="10" stroke-linecap="round" stroke-linejoin="round"/>
<path d="M20.704 13.2774H18.374C18.238 13.2774 18.1019 13.3625 18.0679 13.4985L15.874 19.2299C15.8229 19.366 15.925 19.502 16.061 19.502H23C23.136 19.502 23.2381 19.366 23.187 19.2299L21.0101 13.4985C20.9761 13.3625 20.84 13.2774 20.704 13.2774Z" stroke="#11100E" stroke-miterlimit="10" stroke-linecap="round" stroke-linejoin="round"/>
<path d="M32.3312 36V13.6H37.7712V36H32.3312ZM34.8592 27.424V22.88H46.4432V27.424H34.8592ZM34.8592 18.4V13.6H47.7552V18.4H34.8592ZM50.3272 36V19.008H55.1912L55.4152 24.544L54.4552 23.488C54.7112 22.5707 55.1272 21.7493 55.7032 21.024C56.3005 20.2987 56.9939 19.7227 57.7832 19.296C58.5725 18.8693 59.4152 18.656 60.3112 18.656C60.6952 18.656 61.0472 18.688 61.3672 18.752C61.7085 18.816 62.0179 18.8907 62.2952 18.976L60.8872 24.64C60.6525 24.4907 60.3325 24.3733 59.9272 24.288C59.5432 24.1813 59.1379 24.128 58.7112 24.128C58.2419 24.128 57.8045 24.2133 57.3992 24.384C56.9939 24.5333 56.6525 24.7573 56.3752 25.056C56.0979 25.3547 55.8739 25.7067 55.7032 26.112C55.5539 26.5173 55.4792 26.976 55.4792 27.488V36H50.3272ZM71.3069 36.32C69.4296 36.32 67.7976 35.9467 66.4109 35.2C65.0243 34.432 63.9469 33.3973 63.1789 32.096C62.4109 30.7733 62.0269 29.2693 62.0269 27.584C62.0269 26.2827 62.2403 25.088 62.6669 24C63.0936 22.912 63.6909 21.9733 64.4589 21.184C65.2269 20.3733 66.1336 19.7547 67.1789 19.328C68.2456 18.88 69.4083 18.656 70.6669 18.656C71.8616 18.656 72.9496 18.8693 73.9309 19.296C74.9336 19.7227 75.7976 20.32 76.5229 21.088C77.2483 21.856 77.8029 22.7627 78.1869 23.808C78.5709 24.8533 78.7416 25.9947 78.6989 27.232L78.6669 28.608H65.1309L64.3949 25.728H74.5069L73.9629 26.336V25.696C73.9203 25.1627 73.7496 24.6933 73.4509 24.288C73.1736 23.8613 72.8003 23.5307 72.3309 23.296C71.8616 23.0613 71.3283 22.944 70.7309 22.944C69.8989 22.944 69.1843 23.1147 68.5869 23.456C68.0109 23.776 67.5736 24.256 67.2749 24.896C66.9763 25.5147 66.8269 26.2827 66.8269 27.2C66.8269 28.1387 67.0189 28.96 67.4029 29.664C67.8083 30.3467 68.3843 30.88 69.1309 31.264C69.8989 31.648 70.8056 31.84 71.8509 31.84C72.5763 31.84 73.2163 31.7333 73.7709 31.52C74.3469 31.3067 74.9656 30.944 75.6269 30.432L78.0269 33.824C77.3656 34.4 76.6616 34.8693 75.9149 35.232C75.1683 35.5947 74.4003 35.8613 73.6109 36.032C72.8429 36.224 72.0749 36.32 71.3069 36.32ZM86.7289 36.32C85.0649 36.32 83.5929 36.0533 82.3129 35.52C81.0543 34.9867 80.0516 34.272 79.3049 33.376L82.4089 30.688C83.0703 31.3493 83.8169 31.84 84.6489 32.16C85.4809 32.4587 86.2703 32.608 87.0169 32.608C87.3156 32.608 87.5823 32.576 87.8169 32.512C88.0516 32.448 88.2436 32.3627 88.3929 32.256C88.5636 32.128 88.6916 31.9893 88.7769 31.84C88.8623 31.6693 88.9049 31.4773 88.9049 31.264C88.9049 30.8373 88.7129 30.5067 88.3289 30.272C88.1369 30.1653 87.8169 30.0373 87.3689 29.888C86.9209 29.7387 86.3449 29.568 85.6409 29.376C84.6383 29.12 83.7636 28.8213 83.0169 28.48C82.2916 28.1173 81.6943 27.7013 81.2249 27.232C80.7983 26.784 80.4676 26.2933 80.2329 25.76C79.9983 25.2053 79.8809 24.5867 79.8809 23.904C79.8809 23.1147 80.0623 22.4 80.4249 21.76C80.8089 21.12 81.3103 20.5653 81.9289 20.096C82.5689 19.6267 83.2943 19.2747 84.1049 19.04C84.9369 18.784 85.7903 18.656 86.6649 18.656C87.6036 18.656 88.4996 18.7627 89.3529 18.976C90.2063 19.1893 90.9956 19.488 91.7209 19.872C92.4676 20.256 93.1289 20.7147 93.7049 21.248L91.0169 24.256C90.6329 23.8933 90.1956 23.5733 89.7049 23.296C89.2356 22.9973 88.7449 22.7627 88.2329 22.592C87.7209 22.4213 87.2516 22.336 86.8249 22.336C86.5049 22.336 86.2169 22.368 85.9609 22.432C85.7263 22.4747 85.5236 22.56 85.3529 22.688C85.1823 22.7947 85.0543 22.9333 84.9689 23.104C84.8836 23.2533 84.8409 23.4347 84.8409 23.648C84.8409 23.8613 84.8943 24.064 85.0009 24.256C85.1289 24.448 85.2996 24.608 85.5129 24.736C85.7263 24.864 86.0676 25.0133 86.5369 25.184C87.0063 25.3333 87.6463 25.5253 88.4569 25.76C89.4596 26.0373 90.3236 26.3467 91.0489 26.688C91.7743 27.0293 92.3503 27.4347 92.7769 27.904C93.1183 28.2667 93.3743 28.6933 93.5449 29.184C93.7156 29.6533 93.8009 30.1653 93.8009 30.72C93.8009 31.808 93.4916 32.7787 92.8729 33.632C92.2756 34.464 91.4436 35.1253 90.3769 35.616C89.3103 36.0853 88.0943 36.32 86.7289 36.32ZM95.8847 36V12.32H100.909V22.464L99.8847 22.848C100.119 22.08 100.535 21.3867 101.133 20.768C101.751 20.128 102.487 19.616 103.341 19.232C104.194 18.848 105.09 18.656 106.029 18.656C107.309 18.656 108.386 18.9227 109.261 19.456C110.135 19.968 110.797 20.7467 111.245 21.792C111.693 22.816 111.917 24.0747 111.917 25.568V36H106.765V25.984C106.765 25.3013 106.669 24.736 106.477 24.288C106.285 23.84 105.986 23.5093 105.581 23.296C105.197 23.0613 104.717 22.9547 104.141 22.976C103.693 22.976 103.277 23.0507 102.893 23.2C102.509 23.328 102.178 23.5307 101.901 23.808C101.623 24.064 101.399 24.3627 101.229 24.704C101.079 25.0453 101.005 25.4187 101.005 25.824V36H98.4767C97.8794 36 97.3674 36 96.9407 36C96.514 36 96.162 36 95.8847 36ZM125.957 36.32C124.272 36.32 122.715 36.0427 121.285 35.488C119.877 34.912 118.651 34.112 117.605 33.088C116.56 32.0427 115.749 30.816 115.173 29.408C114.619 27.9787 114.341 26.4107 114.341 24.704C114.341 23.04 114.64 21.504 115.237 20.096C115.835 18.688 116.656 17.472 117.701 16.448C118.768 15.4027 120.016 14.592 121.445 14.016C122.896 13.44 124.475 13.152 126.181 13.152C127.248 13.152 128.293 13.2907 129.317 13.568C130.341 13.8453 131.291 14.2613 132.165 14.816C133.061 15.3493 133.829 15.9893 134.469 16.736L131.141 20.544C130.693 20.0747 130.213 19.6693 129.701 19.328C129.211 18.9653 128.667 18.688 128.069 18.496C127.472 18.304 126.832 18.208 126.149 18.208C125.296 18.208 124.485 18.368 123.717 18.688C122.971 18.9867 122.309 19.424 121.733 20C121.179 20.5547 120.741 21.2373 120.421 22.048C120.101 22.8587 119.941 23.7653 119.941 24.768C119.941 25.7493 120.101 26.6453 120.421 27.456C120.741 28.2453 121.189 28.928 121.765 29.504C122.341 30.08 123.035 30.5173 123.845 30.816C124.677 31.1147 125.595 31.264 126.597 31.264C127.28 31.264 127.931 31.168 128.549 30.976C129.168 30.784 129.733 30.528 130.245 30.208C130.779 29.8667 131.248 29.4827 131.653 29.056L134.277 33.216C133.744 33.8133 133.029 34.3467 132.133 34.816C131.259 35.2853 130.277 35.6587 129.189 35.936C128.123 36.192 127.045 36.32 125.957 36.32ZM142.768 36.288C141.339 36.288 140.059 35.9147 138.928 35.168C137.819 34.4 136.933 33.3547 136.272 32.032C135.611 30.688 135.28 29.1733 135.28 27.488C135.28 25.76 135.611 24.2347 136.272 22.912C136.933 21.5893 137.84 20.5547 138.992 19.808C140.144 19.04 141.456 18.656 142.928 18.656C143.739 18.656 144.475 18.7733 145.136 19.008C145.819 19.2427 146.416 19.5733 146.928 20C147.44 20.4053 147.877 20.8853 148.24 21.44C148.603 21.9733 148.869 22.5493 149.04 23.168L147.984 23.04V19.008H153.072V36H147.888V31.904L149.04 31.872C148.869 32.4693 148.592 33.0347 148.208 33.568C147.824 34.1013 147.355 34.5707 146.8 34.976C146.245 35.3813 145.627 35.7013 144.944 35.936C144.261 36.1707 143.536 36.288 142.768 36.288ZM144.176 31.968C144.965 31.968 145.648 31.7867 146.224 31.424C146.8 31.0613 147.248 30.5493 147.568 29.888C147.888 29.2053 148.048 28.4053 148.048 27.488C148.048 26.5707 147.888 25.7813 147.568 25.12C147.248 24.4373 146.8 23.9147 146.224 23.552C145.648 23.168 144.965 22.976 144.176 22.976C143.408 22.976 142.736 23.168 142.16 23.552C141.605 23.9147 141.168 24.4373 140.848 25.12C140.528 25.7813 140.368 26.5707 140.368 27.488C140.368 28.4053 140.528 29.2053 140.848 29.888C141.168 30.5493 141.605 31.0613 142.16 31.424C142.736 31.7867 143.408 31.968 144.176 31.968ZM156.63 36V19.008H161.494L161.718 24.544L160.758 23.488C161.014 22.5707 161.43 21.7493 162.006 21.024C162.603 20.2987 163.296 19.7227 164.086 19.296C164.875 18.8693 165.718 18.656 166.614 18.656C166.998 18.656 167.35 18.688 167.67 18.752C168.011 18.816 168.32 18.8907 168.598 18.976L167.19 24.64C166.955 24.4907 166.635 24.3733 166.23 24.288C165.846 24.1813 165.44 24.128 165.014 24.128C164.544 24.128 164.107 24.2133 163.702 24.384C163.296 24.5333 162.955 24.7573 162.678 25.056C162.4 25.3547 162.176 25.7067 162.006 26.112C161.856 26.5173 161.782 26.976 161.782 27.488V36H156.63ZM172.265 36V14.72H177.385V36H172.265ZM169.257 23.488V19.008H180.681V23.488H169.257Z" fill="#211F1C"/>
</svg> -->
<svg width="182" height="44" viewBox="0 0 182 44" fill="none" xmlns="http://www.w3.org/2000/svg">
<path d="M2.84445 26.8043L1.65395 9.69512C1.63694 9.50804 1.58592 8.98082 1.56891 8.79374C1.5349 8.33455 1.63694 8.11346 1.85803 7.84134C1.96008 7.70529 2.35124 7.43317 2.92948 7.55222C3.08255 7.58624 3.40568 7.62025 3.54174 7.63726C4.6302 7.77332 5.3445 7.85835 6.02478 7.90937C7.65747 8.02842 8.47381 8.09645 9.30716 8.02842C10.2596 7.94339 10.4296 7.90937 11.7902 7.70529C13.5249 7.43317 13.8991 7.72229 14.1712 7.92638C14.4433 8.13047 14.6814 8.58966 14.6644 9.04885C14.6644 9.26994 14.5454 9.78016 14.5113 10.0013C14.2732 11.1407 14.1372 15.9027 14.1372 16.651C14.1372 17.3143 14.1882 17.8415 14.2732 18.2667C14.2903 18.3688 14.3753 18.4198 14.4773 18.4198L21.5693 17.7055C22.4537 17.6375 23.3551 17.5014 23.7972 18.0456C24.2394 18.5729 24.0694 19.1681 23.6612 19.8144C23.5251 20.0355 23.4401 20.2906 23.4401 20.5627L23.151 27.1444C23.151 27.3145 23.0149 27.4506 22.8619 27.4676L10.3446 28.8282C10.3106 28.8282 10.2596 28.8282 10.2255 28.8282L3.11656 27.1104C2.9635 27.0594 2.86145 26.9404 2.84445 26.8043Z" stroke="#11100E" stroke-miterlimit="10" stroke-linecap="round" stroke-linejoin="round"/>
<path d="M4.49609 10.1368C4.49609 10.1368 5.48251 15.0518 5.77163 17.9941C5.78864 18.0961 5.89068 18.1641 5.99272 18.1641C6.94512 18.0281 11.452 17.739 11.9622 18.9295C12.4214 19.9839 12.4554 23.1302 12.4724 23.9466C12.4724 24.0656 12.5745 24.1506 12.6765 24.1336L20.3127 23.2493" stroke="#11100E" stroke-miterlimit="10" stroke-linecap="round" stroke-linejoin="round"/>
<path d="M10.2115 28.8116L9.53125 20.325" stroke="#11100E" stroke-miterlimit="10" stroke-linecap="round" stroke-linejoin="round"/>
<path d="M19.5469 17.5187V14.6615" stroke="#11100E" stroke-width="0.7" stroke-miterlimit="10" stroke-linecap="round" stroke-linejoin="round"/>
<path d="M20.6719 14.7125V16.0731" stroke="#11100E" stroke-width="0.7" stroke-miterlimit="10" stroke-linecap="round" stroke-linejoin="round"/>
<path d="M18.4245 14.6615C18.4245 15.1207 18.0504 15.4949 17.5912 15.4949C17.132 15.4949 16.7578 15.1207 16.7578 14.6615" stroke="#11100E" stroke-width="0.7" stroke-miterlimit="10" stroke-linecap="round" stroke-linejoin="round"/>
<path d="M20.7028 7.38242H18.3728C18.2367 7.38242 18.1007 7.46745 18.0667 7.60351L15.8727 13.3349C15.8217 13.471 15.9238 13.607 16.0598 13.607H22.9987C23.1348 13.607 23.2368 13.471 23.1858 13.3349L21.0089 7.60351C20.9749 7.46745 20.8388 7.38242 20.7028 7.38242Z" stroke="#11100E" stroke-miterlimit="10" stroke-linecap="round" stroke-linejoin="round"/>
<path d="M32.3316 28V5.6H37.7716V28H32.3316ZM34.8596 19.424V14.88H46.4436V19.424H34.8596ZM34.8596 10.4V5.6H47.7556V10.4H34.8596ZM50.3276 28V11.008H55.1916L55.4156 16.544L54.4556 15.488C54.7116 14.5707 55.1276 13.7493 55.7036 13.024C56.301 12.2987 56.9943 11.7227 57.7836 11.296C58.573 10.8693 59.4156 10.656 60.3116 10.656C60.6956 10.656 61.0476 10.688 61.3676 10.752C61.709 10.816 62.0183 10.8907 62.2956 10.976L60.8876 16.64C60.653 16.4907 60.333 16.3733 59.9276 16.288C59.5436 16.1813 59.1383 16.128 58.7116 16.128C58.2423 16.128 57.805 16.2133 57.3996 16.384C56.9943 16.5333 56.653 16.7573 56.3756 17.056C56.0983 17.3547 55.8743 17.7067 55.7036 18.112C55.5543 18.5173 55.4796 18.976 55.4796 19.488V28H50.3276ZM71.3074 28.32C69.43 28.32 67.798 27.9467 66.4114 27.2C65.0247 26.432 63.9474 25.3973 63.1794 24.096C62.4114 22.7733 62.0274 21.2693 62.0274 19.584C62.0274 18.2827 62.2407 17.088 62.6674 16C63.094 14.912 63.6914 13.9733 64.4594 13.184C65.2274 12.3733 66.134 11.7547 67.1794 11.328C68.246 10.88 69.4087 10.656 70.6674 10.656C71.862 10.656 72.95 10.8693 73.9314 11.296C74.934 11.7227 75.798 12.32 76.5234 13.088C77.2487 13.856 77.8034 14.7627 78.1874 15.808C78.5714 16.8533 78.742 17.9947 78.6994 19.232L78.6674 20.608H65.1314L64.3954 17.728H74.5074L73.9634 18.336V17.696C73.9207 17.1627 73.75 16.6933 73.4514 16.288C73.174 15.8613 72.8007 15.5307 72.3314 15.296C71.862 15.0613 71.3287 14.944 70.7314 14.944C69.8994 14.944 69.1847 15.1147 68.5874 15.456C68.0114 15.776 67.574 16.256 67.2754 16.896C66.9767 17.5147 66.8274 18.2827 66.8274 19.2C66.8274 20.1387 67.0194 20.96 67.4034 21.664C67.8087 22.3467 68.3847 22.88 69.1314 23.264C69.8994 23.648 70.806 23.84 71.8514 23.84C72.5767 23.84 73.2167 23.7333 73.7714 23.52C74.3474 23.3067 74.966 22.944 75.6274 22.432L78.0274 25.824C77.366 26.4 76.662 26.8693 75.9154 27.232C75.1687 27.5947 74.4007 27.8613 73.6114 28.032C72.8434 28.224 72.0754 28.32 71.3074 28.32ZM86.7294 28.32C85.0654 28.32 83.5934 28.0533 82.3134 27.52C81.0547 26.9867 80.052 26.272 79.3054 25.376L82.4094 22.688C83.0707 23.3493 83.8174 23.84 84.6494 24.16C85.4814 24.4587 86.2707 24.608 87.0174 24.608C87.316 24.608 87.5827 24.576 87.8174 24.512C88.052 24.448 88.244 24.3627 88.3934 24.256C88.564 24.128 88.692 23.9893 88.7774 23.84C88.8627 23.6693 88.9054 23.4773 88.9054 23.264C88.9054 22.8373 88.7134 22.5067 88.3294 22.272C88.1374 22.1653 87.8174 22.0373 87.3694 21.888C86.9214 21.7387 86.3454 21.568 85.6414 21.376C84.6387 21.12 83.764 20.8213 83.0174 20.48C82.292 20.1173 81.6947 19.7013 81.2254 19.232C80.7987 18.784 80.468 18.2933 80.2334 17.76C79.9987 17.2053 79.8814 16.5867 79.8814 15.904C79.8814 15.1147 80.0627 14.4 80.4254 13.76C80.8094 13.12 81.3107 12.5653 81.9294 12.096C82.5694 11.6267 83.2947 11.2747 84.1054 11.04C84.9374 10.784 85.7907 10.656 86.6654 10.656C87.604 10.656 88.5 10.7627 89.3534 10.976C90.2067 11.1893 90.996 11.488 91.7214 11.872C92.468 12.256 93.1294 12.7147 93.7054 13.248L91.0174 16.256C90.6334 15.8933 90.196 15.5733 89.7054 15.296C89.236 14.9973 88.7454 14.7627 88.2334 14.592C87.7214 14.4213 87.252 14.336 86.8254 14.336C86.5054 14.336 86.2174 14.368 85.9614 14.432C85.7267 14.4747 85.524 14.56 85.3534 14.688C85.1827 14.7947 85.0547 14.9333 84.9694 15.104C84.884 15.2533 84.8414 15.4347 84.8414 15.648C84.8414 15.8613 84.8947 16.064 85.0014 16.256C85.1294 16.448 85.3 16.608 85.5134 16.736C85.7267 16.864 86.068 17.0133 86.5374 17.184C87.0067 17.3333 87.6467 17.5253 88.4574 17.76C89.46 18.0373 90.324 18.3467 91.0494 18.688C91.7747 19.0293 92.3507 19.4347 92.7774 19.904C93.1187 20.2667 93.3747 20.6933 93.5454 21.184C93.716 21.6533 93.8014 22.1653 93.8014 22.72C93.8014 23.808 93.492 24.7787 92.8734 25.632C92.276 26.464 91.444 27.1253 90.3774 27.616C89.3107 28.0853 88.0947 28.32 86.7294 28.32ZM95.8851 28V4.32H100.909V14.464L99.8851 14.848C100.12 14.08 100.536 13.3867 101.133 12.768C101.752 12.128 102.488 11.616 103.341 11.232C104.194 10.848 105.09 10.656 106.029 10.656C107.309 10.656 108.386 10.9227 109.261 11.456C110.136 11.968 110.797 12.7467 111.245 13.792C111.693 14.816 111.917 16.0747 111.917 17.568V28H106.765V17.984C106.765 17.3013 106.669 16.736 106.477 16.288C106.285 15.84 105.986 15.5093 105.581 15.296C105.197 15.0613 104.717 14.9547 104.141 14.976C103.693 14.976 103.277 15.0507 102.893 15.2C102.509 15.328 102.178 15.5307 101.901 15.808C101.624 16.064 101.4 16.3627 101.229 16.704C101.08 17.0453 101.005 17.4187 101.005 17.824V28H98.4771C97.8798 28 97.3678 28 96.9411 28C96.5145 28 96.1625 28 95.8851 28ZM125.958 28.32C124.272 28.32 122.715 28.0427 121.286 27.488C119.878 26.912 118.651 26.112 117.606 25.088C116.56 24.0427 115.75 22.816 115.174 21.408C114.619 19.9787 114.342 18.4107 114.342 16.704C114.342 15.04 114.64 13.504 115.238 12.096C115.835 10.688 116.656 9.472 117.702 8.448C118.768 7.40267 120.016 6.592 121.446 6.016C122.896 5.44 124.475 5.152 126.182 5.152C127.248 5.152 128.294 5.29067 129.318 5.568C130.342 5.84533 131.291 6.26133 132.166 6.816C133.062 7.34933 133.83 7.98933 134.47 8.736L131.142 12.544C130.694 12.0747 130.214 11.6693 129.702 11.328C129.211 10.9653 128.667 10.688 128.07 10.496C127.472 10.304 126.832 10.208 126.15 10.208C125.296 10.208 124.486 10.368 123.718 10.688C122.971 10.9867 122.31 11.424 121.734 12C121.179 12.5547 120.742 13.2373 120.422 14.048C120.102 14.8587 119.942 15.7653 119.942 16.768C119.942 17.7493 120.102 18.6453 120.422 19.456C120.742 20.2453 121.19 20.928 121.766 21.504C122.342 22.08 123.035 22.5173 123.846 22.816C124.678 23.1147 125.595 23.264 126.598 23.264C127.28 23.264 127.931 23.168 128.55 22.976C129.168 22.784 129.734 22.528 130.246 22.208C130.779 21.8667 131.248 21.4827 131.654 21.056L134.278 25.216C133.744 25.8133 133.03 26.3467 132.134 26.816C131.259 27.2853 130.278 27.6587 129.19 27.936C128.123 28.192 127.046 28.32 125.958 28.32ZM142.768 28.288C141.339 28.288 140.059 27.9147 138.928 27.168C137.819 26.4 136.934 25.3547 136.272 24.032C135.611 22.688 135.28 21.1733 135.28 19.488C135.28 17.76 135.611 16.2347 136.272 14.912C136.934 13.5893 137.84 12.5547 138.992 11.808C140.144 11.04 141.456 10.656 142.928 10.656C143.739 10.656 144.475 10.7733 145.136 11.008C145.819 11.2427 146.416 11.5733 146.928 12C147.44 12.4053 147.878 12.8853 148.24 13.44C148.603 13.9733 148.87 14.5493 149.04 15.168L147.984 15.04V11.008H153.072V28H147.888V23.904L149.04 23.872C148.87 24.4693 148.592 25.0347 148.208 25.568C147.824 26.1013 147.355 26.5707 146.8 26.976C146.246 27.3813 145.627 27.7013 144.944 27.936C144.262 28.1707 143.536 28.288 142.768 28.288ZM144.176 23.968C144.966 23.968 145.648 23.7867 146.224 23.424C146.8 23.0613 147.248 22.5493 147.568 21.888C147.888 21.2053 148.048 20.4053 148.048 19.488C148.048 18.5707 147.888 17.7813 147.568 17.12C147.248 16.4373 146.8 15.9147 146.224 15.552C145.648 15.168 144.966 14.976 144.176 14.976C143.408 14.976 142.736 15.168 142.16 15.552C141.606 15.9147 141.168 16.4373 140.848 17.12C140.528 17.7813 140.368 18.5707 140.368 19.488C140.368 20.4053 140.528 21.2053 140.848 21.888C141.168 22.5493 141.606 23.0613 142.16 23.424C142.736 23.7867 143.408 23.968 144.176 23.968ZM156.63 28V11.008H161.494L161.718 16.544L160.758 15.488C161.014 14.5707 161.43 13.7493 162.006 13.024C162.603 12.2987 163.297 11.7227 164.086 11.296C164.875 10.8693 165.718 10.656 166.614 10.656C166.998 10.656 167.35 10.688 167.67 10.752C168.011 10.816 168.321 10.8907 168.598 10.976L167.19 16.64C166.955 16.4907 166.635 16.3733 166.23 16.288C165.846 16.1813 165.441 16.128 165.014 16.128C164.545 16.128 164.107 16.2133 163.702 16.384C163.297 16.5333 162.955 16.7573 162.678 17.056C162.401 17.3547 162.177 17.7067 162.006 18.112C161.857 18.5173 161.782 18.976 161.782 19.488V28H156.63ZM172.266 28V6.72H177.386V28H172.266ZM169.258 15.488V11.008H180.682V15.488H169.258Z" fill="#211F1C"/>
<path d="M127.644 43V34.6H129.204V43H127.644ZM128.364 39.556V38.14H132.696V39.556H128.364ZM128.364 36.04V34.6H133.212V36.04H128.364ZM136.701 43.12C136.245 43.12 135.849 43.02 135.513 42.82C135.177 42.612 134.921 42.32 134.745 41.944C134.569 41.56 134.481 41.104 134.481 40.576V36.676H135.957V40.264C135.957 40.6 136.009 40.888 136.113 41.128C136.217 41.36 136.369 41.54 136.569 41.668C136.769 41.796 137.009 41.86 137.289 41.86C137.497 41.86 137.685 41.828 137.853 41.764C138.029 41.692 138.181 41.596 138.309 41.476C138.437 41.348 138.537 41.2 138.609 41.032C138.681 40.856 138.717 40.668 138.717 40.468V36.676H140.193V43H138.753L138.729 41.68L138.993 41.536C138.897 41.84 138.733 42.112 138.501 42.352C138.277 42.584 138.009 42.772 137.697 42.916C137.385 43.052 137.053 43.12 136.701 43.12ZM141.923 43V36.676H143.375L143.399 38.692L143.195 38.236C143.283 37.916 143.435 37.628 143.651 37.372C143.867 37.116 144.115 36.916 144.395 36.772C144.683 36.62 144.983 36.544 145.295 36.544C145.431 36.544 145.559 36.556 145.679 36.58C145.807 36.604 145.911 36.632 145.991 36.664L145.595 38.284C145.507 38.236 145.399 38.196 145.271 38.164C145.143 38.132 145.015 38.116 144.887 38.116C144.687 38.116 144.495 38.156 144.311 38.236C144.135 38.308 143.979 38.412 143.843 38.548C143.707 38.684 143.599 38.844 143.519 39.028C143.447 39.204 143.411 39.404 143.411 39.628V43H141.923ZM146.973 43V36.676H148.413L148.437 37.972L148.161 38.116C148.241 37.828 148.397 37.568 148.629 37.336C148.861 37.096 149.137 36.904 149.457 36.76C149.777 36.616 150.105 36.544 150.441 36.544C150.921 36.544 151.321 36.64 151.641 36.832C151.969 37.024 152.213 37.312 152.373 37.696C152.541 38.08 152.625 38.56 152.625 39.136V43H151.149V39.244C151.149 38.924 151.105 38.66 151.017 38.452C150.929 38.236 150.793 38.08 150.609 37.984C150.425 37.88 150.201 37.832 149.937 37.84C149.721 37.84 149.521 37.876 149.337 37.948C149.161 38.012 149.005 38.108 148.869 38.236C148.741 38.356 148.637 38.496 148.557 38.656C148.485 38.816 148.449 38.992 148.449 39.184V43H147.717C147.573 43 147.437 43 147.309 43C147.189 43 147.077 43 146.973 43ZM154.454 43V36.676H155.93V43H154.454ZM155.174 35.332C154.878 35.332 154.646 35.26 154.478 35.116C154.318 34.964 154.238 34.752 154.238 34.48C154.238 34.224 154.322 34.016 154.49 33.856C154.658 33.696 154.886 33.616 155.174 33.616C155.478 33.616 155.71 33.692 155.87 33.844C156.038 33.988 156.122 34.2 156.122 34.48C156.122 34.728 156.038 34.932 155.87 35.092C155.702 35.252 155.47 35.332 155.174 35.332ZM158.486 43V35.068H159.962V43H158.486ZM157.238 38.044V36.676H161.342V38.044H157.238ZM164.662 43.12C164.206 43.12 163.81 43.02 163.474 42.82C163.138 42.612 162.882 42.32 162.706 41.944C162.53 41.56 162.442 41.104 162.442 40.576V36.676H163.918V40.264C163.918 40.6 163.97 40.888 164.074 41.128C164.178 41.36 164.33 41.54 164.53 41.668C164.73 41.796 164.97 41.86 165.25 41.86C165.458 41.86 165.646 41.828 165.814 41.764C165.99 41.692 166.142 41.596 166.27 41.476C166.398 41.348 166.498 41.2 166.57 41.032C166.642 40.856 166.678 40.668 166.678 40.468V36.676H168.154V43H166.714L166.69 41.68L166.954 41.536C166.858 41.84 166.694 42.112 166.462 42.352C166.238 42.584 165.97 42.772 165.658 42.916C165.346 43.052 165.014 43.12 164.662 43.12ZM169.884 43V36.676H171.336L171.36 38.692L171.156 38.236C171.244 37.916 171.396 37.628 171.612 37.372C171.828 37.116 172.076 36.916 172.356 36.772C172.644 36.62 172.944 36.544 173.256 36.544C173.392 36.544 173.52 36.556 173.64 36.58C173.768 36.604 173.872 36.632 173.952 36.664L173.556 38.284C173.468 38.236 173.36 38.196 173.232 38.164C173.104 38.132 172.976 38.116 172.848 38.116C172.648 38.116 172.456 38.156 172.272 38.236C172.096 38.308 171.94 38.412 171.804 38.548C171.668 38.684 171.56 38.844 171.48 39.028C171.408 39.204 171.372 39.404 171.372 39.628V43H169.884ZM177.629 43.12C176.965 43.12 176.377 42.98 175.865 42.7C175.361 42.42 174.965 42.04 174.677 41.56C174.397 41.072 174.257 40.516 174.257 39.892C174.257 39.396 174.337 38.944 174.497 38.536C174.657 38.128 174.877 37.776 175.157 37.48C175.445 37.176 175.785 36.944 176.177 36.784C176.577 36.616 177.013 36.532 177.485 36.532C177.901 36.532 178.289 36.612 178.649 36.772C179.009 36.932 179.321 37.152 179.585 37.432C179.849 37.704 180.049 38.032 180.185 38.416C180.329 38.792 180.397 39.204 180.389 39.652L180.377 40.168H175.253L174.977 39.16H179.141L178.949 39.364V39.1C178.925 38.852 178.845 38.636 178.709 38.452C178.573 38.26 178.397 38.112 178.181 38.008C177.973 37.896 177.741 37.84 177.485 37.84C177.093 37.84 176.761 37.916 176.489 38.068C176.225 38.22 176.025 38.44 175.889 38.728C175.753 39.008 175.685 39.36 175.685 39.784C175.685 40.192 175.769 40.548 175.937 40.852C176.113 41.156 176.357 41.392 176.669 41.56C176.989 41.72 177.361 41.8 177.785 41.8C178.081 41.8 178.353 41.752 178.601 41.656C178.849 41.56 179.117 41.388 179.405 41.14L180.137 42.16C179.921 42.36 179.673 42.532 179.393 42.676C179.121 42.812 178.833 42.92 178.529 43C178.225 43.08 177.925 43.12 177.629 43.12Z" fill="#211F1C"/>
</svg>
